<?xml version="1.0" encoding="UTF-8"?><svg xmlns="http://www.w3.org/2000/svg" xmlns:xlink="http://www.w3.org/1999/xlink" fill-opacity="1" color-rendering="auto" color-interpolation="auto" text-rendering="auto" stroke="black" stroke-linecap="square" width="508" stroke-miterlimit="10" shape-rendering="auto" stroke-opacity="1" fill="black" stroke-dasharray="none" font-weight="normal" stroke-width="1" height="300" font-family="'Dialog'" font-style="normal" stroke-linejoin="miter" font-size="12px" stroke-dashoffset="0" image-rendering="auto">
  <!--Generated by ySVG 2.5-->
  <defs id="genericDefs"/>
  <g>
    <defs id="defs1">
      <clipPath clipPathUnits="userSpaceOnUse" id="clipPath1">
        <path d="M0 0 L508 0 L508 300 L0 300 L0 0 Z"/>
      </clipPath>
      <clipPath clipPathUnits="userSpaceOnUse" id="clipPath2">
        <path d="M261 4 L769 4 L769 304 L261 304 L261 4 Z"/>
      </clipPath>
    </defs>
    <g fill="white" text-rendering="geometricPrecision" shape-rendering="geometricPrecision" transform="translate(-261,-4)" stroke="white">
      <rect x="261" width="508" height="300" y="4" clip-path="url(#clipPath2)" stroke="none"/>
    </g>
    <g fill="rgb(204,255,255)" text-rendering="geometricPrecision" shape-rendering="geometricPrecision" transform="matrix(1,0,0,1,-261,-4)" stroke="rgb(204,255,255)">
      <rect x="271" width="121" height="33" y="166.6667" clip-path="url(#clipPath2)" stroke="none"/>
    </g>
    <g text-rendering="geometricPrecision" stroke-miterlimit="1.45" shape-rendering="geometricPrecision" transform="matrix(1,0,0,1,-261,-4)" stroke-linecap="butt">
      <rect fill="none" x="271" width="121" height="33" y="166.6667" clip-path="url(#clipPath2)"/>
      <text x="286.0811" xml:space="preserve" y="187.7018" clip-path="url(#clipPath2)" font-family="sans-serif" stroke="none">Client Web-app</text>
    </g>
    <g fill="rgb(204,255,255)" text-rendering="geometricPrecision" shape-rendering="geometricPrecision" transform="matrix(1,0,0,1,-261,-4)" stroke="rgb(204,255,255)">
      <rect x="293" width="121" height="33" y="220.6667" clip-path="url(#clipPath2)" stroke="none"/>
    </g>
    <g text-rendering="geometricPrecision" stroke-miterlimit="1.45" shape-rendering="geometricPrecision" transform="matrix(1,0,0,1,-261,-4)" stroke-linecap="butt">
      <rect fill="none" x="293" width="121" height="33" y="220.6667" clip-path="url(#clipPath2)"/>
      <text x="308.0811" xml:space="preserve" y="241.7018" clip-path="url(#clipPath2)" font-family="sans-serif" stroke="none">Client Web-app</text>
    </g>
    <g fill="rgb(204,255,255)" text-rendering="geometricPrecision" shape-rendering="geometricPrecision" transform="matrix(1,0,0,1,-261,-4)" stroke="rgb(204,255,255)">
      <rect x="271" width="121" height="33" y="112.6667" clip-path="url(#clipPath2)" stroke="none"/>
    </g>
    <g text-rendering="geometricPrecision" stroke-miterlimit="1.45" shape-rendering="geometricPrecision" transform="matrix(1,0,0,1,-261,-4)" stroke-linecap="butt">
      <rect fill="none" x="271" width="121" height="33" y="112.6667" clip-path="url(#clipPath2)"/>
      <text x="286.0811" xml:space="preserve" y="133.7018" clip-path="url(#clipPath2)" font-family="sans-serif" stroke="none">Client Web-app</text>
    </g>
    <g fill="rgb(204,255,255)" text-rendering="geometricPrecision" shape-rendering="geometricPrecision" transform="matrix(1,0,0,1,-261,-4)" stroke="rgb(204,255,255)">
      <rect x="293" width="121" height="33" y="58.6667" clip-path="url(#clipPath2)" stroke="none"/>
    </g>
    <g text-rendering="geometricPrecision" stroke-miterlimit="1.45" shape-rendering="geometricPrecision" transform="matrix(1,0,0,1,-261,-4)" stroke-linecap="butt">
      <rect fill="none" x="293" width="121" height="33" y="58.6667" clip-path="url(#clipPath2)"/>
      <text x="308.0811" xml:space="preserve" y="79.7018" clip-path="url(#clipPath2)" font-family="sans-serif" stroke="none">Client Web-app</text>
    </g>
    <g fill="rgb(255,255,153)" text-rendering="geometricPrecision" shape-rendering="geometricPrecision" transform="matrix(1,0,0,1,-261,-4)" stroke="rgb(255,255,153)">
      <rect x="486.6667" width="272" height="279" y="14.6667" clip-path="url(#clipPath2)" stroke="none"/>
    </g>
    <g text-rendering="geometricPrecision" stroke-miterlimit="1.45" shape-rendering="geometricPrecision" transform="matrix(1,0,0,1,-261,-4)" stroke-linecap="butt">
      <rect fill="none" x="486.6667" width="272" height="279" y="14.6667" clip-path="url(#clipPath2)"/>
      <text x="589.611" xml:space="preserve" y="47.2018" clip-path="url(#clipPath2)" font-family="sans-serif" stroke="none">Host server</text>
    </g>
    <g fill="rgb(255,153,0)" text-rendering="geometricPrecision" shape-rendering="geometricPrecision" transform="matrix(1,0,0,1,-261,-4)" stroke="rgb(255,153,0)">
      <rect x="509.6667" width="83" height="117" y="70.6667" clip-path="url(#clipPath2)" stroke="none"/>
    </g>
    <g text-rendering="geometricPrecision" stroke-miterlimit="1.45" shape-rendering="geometricPrecision" transform="matrix(1,0,0,1,-261,-4)" stroke-linecap="butt">
      <rect fill="none" x="509.6667" width="83" height="117" y="70.6667" clip-path="url(#clipPath2)"/>
      <text x="522.1511" xml:space="preserve" y="133.7018" clip-path="url(#clipPath2)" font-family="sans-serif" stroke="none">API Server</text>
    </g>
    <g fill="rgb(153,204,255)" text-rendering="geometricPrecision" shape-rendering="geometricPrecision" transform="matrix(1,0,0,1,-261,-4)" stroke="rgb(153,204,255)">
      <rect x="641.6667" width="94" height="180.6667" y="79.5391" clip-path="url(#clipPath2)" stroke="none"/>
    </g>
    <g text-rendering="geometricPrecision" stroke-miterlimit="1.45" shape-rendering="geometricPrecision" transform="matrix(1,0,0,1,-261,-4)" stroke-linecap="butt">
      <rect fill="none" x="641.6667" width="94" height="180.6667" y="79.5391" clip-path="url(#clipPath2)"/>
      <text x="657.7936" xml:space="preserve" y="174.4076" clip-path="url(#clipPath2)" font-family="sans-serif" stroke="none">OpenStack</text>
    </g>
    <g fill="lime" text-rendering="geometricPrecision" shape-rendering="geometricPrecision" transform="matrix(1,0,0,1,-261,-4)" stroke="lime">
      <rect x="509.6667" width="83" height="54" y="224.6667" clip-path="url(#clipPath2)" stroke="none"/>
    </g>
    <g text-rendering="geometricPrecision" stroke-miterlimit="1.45" shape-rendering="geometricPrecision" transform="matrix(1,0,0,1,-261,-4)" stroke-linecap="butt">
      <rect fill="none" x="509.6667" width="83" height="54" y="224.6667" clip-path="url(#clipPath2)"/>
      <text x="523.2175" xml:space="preserve" y="256.2018" clip-path="url(#clipPath2)" font-family="sans-serif" stroke="none">MongoDB</text>
      <path fill="none" d="M413.8982 91.6667 L501.9495 115.7212" clip-path="url(#clipPath2)"/>
      <path d="M509.6667 117.8294 L499.4085 109.8438 L500.9848 115.4576 L496.7732 119.4903 Z" clip-path="url(#clipPath2)" stroke="none"/>
      <path fill="none" d="M392 129.1667 L501.6667 129.1667" clip-path="url(#clipPath2)"/>
      <path d="M509.6667 129.1667 L497.6667 124.1667 L500.6667 129.1667 L497.6667 134.1667 Z" clip-path="url(#clipPath2)" stroke="none"/>
      <path fill="none" d="M392 168.2941 L501.8979 141.2782" clip-path="url(#clipPath2)"/>
      <path d="M509.6667 139.3685 L496.82 137.3777 L500.9268 141.517 L499.2072 147.0886 Z" clip-path="url(#clipPath2)" stroke="none"/>
      <path fill="none" d="M383.6991 220.6667 L502.6462 155.677" clip-path="url(#clipPath2)"/>
      <path d="M509.6667 151.8412 L496.7386 153.2071 L501.7686 156.1565 L501.5334 161.9827 Z" clip-path="url(#clipPath2)" stroke="none"/>
      <path fill="none" d="M592.6667 129.1667 L633.6846 129.1667" clip-path="url(#clipPath2)"/>
      <path d="M641.6846 129.1667 L629.6846 124.1667 L632.6846 129.1667 L629.6846 134.1667 Z" clip-path="url(#clipPath2)" stroke="none"/>
      <path fill="none" d="M641.6361 129.1667 L600.6667 129.1667" clip-path="url(#clipPath2)"/>
      <path d="M592.6667 129.1667 L604.6667 134.1667 L601.6667 129.1667 L604.6667 124.1667 Z" clip-path="url(#clipPath2)" stroke="none"/>
      <path fill="none" d="M551.1667 187.6667 L551.1667 216.6667" clip-path="url(#clipPath2)"/>
      <path d="M551.1667 224.6667 L556.1667 212.6667 L551.1667 215.6667 L546.1667 212.6667 Z" clip-path="url(#clipPath2)" stroke="none"/>
      <path fill="none" d="M551.1667 224.6667 L551.1667 195.6541" clip-path="url(#clipPath2)"/>
      <path d="M551.1667 187.6541 L546.1667 199.6541 L551.1667 196.6541 L556.1667 199.6541 Z" clip-path="url(#clipPath2)" stroke="none"/>
    </g>
  </g>
</svg>
